<svg width="20" height="20" viewBox="0 0 20 20" fill="none" xmlns="http://www.w3.org/2000/svg">
<path d="M17.5 10L10 2.5L2.5 10H4.16667V15.8333C4.16667 16.2754 4.34226 16.6993 4.65482 17.0118C4.96738 17.3244 5.39131 17.5 5.83333 17.5H9.75" stroke="white" stroke-linecap="round" stroke-linejoin="round"/>
<path d="M7.5 17.5V12.5C7.5 12.058 7.6756 11.6341 7.98816 11.3215C8.30072 11.0089 8.72464 10.8333 9.16667 10.8333H10.8333" stroke="white" stroke-linecap="round" stroke-linejoin="round"/>
<path d="M15 17.5C16.3807 17.5 17.5 16.3807 17.5 15C17.5 13.6193 16.3807 12.5 15 12.5C13.6193 12.5 12.5 13.6193 12.5 15C12.5 16.3807 13.6193 17.5 15 17.5Z" stroke="white" stroke-linecap="round" stroke-linejoin="round"/>
<path d="M16.8335 16.8333L18.3335 18.3333" stroke="white" stroke-linecap="round" stroke-linejoin="round"/>
</svg>
