<svg width="20" height="20" viewBox="0 0 20 20" fill="none" xmlns="http://www.w3.org/2000/svg">
<path d="M10.8332 5.83334C11.2752 5.83334 11.6991 6.00893 12.0117 6.32149C12.3242 6.63405 12.4998 7.05798 12.4998 7.5V17.5L8.33317 15L4.1665 17.5V7.5C4.1665 7.05798 4.3421 6.63405 4.65466 6.32149C4.96722 6.00893 5.39114 5.83334 5.83317 5.83334H10.8332Z" stroke="#8C8C8C" stroke-linecap="round" stroke-linejoin="round"/>
<path d="M7.7207 3.33334C7.86719 3.07961 8.07798 2.86898 8.33181 2.72268C8.58564 2.57638 8.87356 2.49957 9.16654 2.5H14.1665C14.6086 2.5 15.0325 2.6756 15.345 2.98816C15.6576 3.30072 15.8332 3.72464 15.8332 4.16667V14.1667L14.9999 13.6667" stroke="#8C8C8C" stroke-linecap="round" stroke-linejoin="round"/>
</svg>
